<svg width="24" height="24" viewBox="0 0 24 24" fill="none" xmlns="http://www.w3.org/2000/svg">
<g clip-path="url(#clip0_2932_11046)">
<path fill-rule="evenodd" clip-rule="evenodd" d="M9.03363 23.364C8.55231 23.5951 7.97435 23.4073 7.72078 22.9374L6.15806 20.0416L2.92109 19.4502C2.39586 19.3543 2.03866 18.8626 2.1097 18.3335L2.54754 15.0722L0.276386 12.6911C-0.0921287 12.3047 -0.0921287 11.697 0.276386 11.3107L2.54754 8.92958L2.1097 5.66829C2.03866 5.13912 2.39586 4.64747 2.92109 4.55152L6.15806 3.96013L7.72078 1.06434C7.97435 0.594465 8.55231 0.406674 9.03363 0.637763L12 2.06196L14.9664 0.637763C15.4477 0.406674 16.0257 0.594465 16.2792 1.06434L17.8419 3.96013L21.0789 4.55152C21.6041 4.64747 21.9613 5.13912 21.8903 5.66829L21.4525 8.92958L23.7236 11.3107C24.0921 11.697 24.0921 12.3047 23.7236 12.6911L21.4525 15.0722L21.8903 18.3335C21.9613 18.8626 21.6041 19.3543 21.0789 19.4502L17.8419 20.0416L16.2792 22.9374C16.0257 23.4073 15.4477 23.5951 14.9664 23.364L12 21.9398L9.03363 23.364ZM11.5672 19.929C11.8408 19.7977 12.1592 19.7977 12.4328 19.929L14.9721 21.1482L16.3099 18.6693C16.454 18.4022 16.7116 18.215 17.0102 18.1605L19.7812 17.6542L19.4064 14.8625C19.366 14.5617 19.4644 14.2588 19.6739 14.0392L21.618 12.0009L19.6739 9.96257C19.4644 9.74296 19.366 9.4401 19.4064 9.13931L19.7812 6.34752L17.0102 5.84127C16.7116 5.78673 16.454 5.59955 16.3099 5.33247L14.9721 2.85356L12.4328 4.07273C12.1592 4.20409 11.8408 4.20409 11.5672 4.07273L9.02786 2.85356L7.69011 5.33247C7.54598 5.59955 7.28835 5.78673 6.9898 5.84127L4.21884 6.34752L4.59364 9.13931C4.63402 9.4401 4.53562 9.74296 4.32614 9.96257L2.38195 12.0009L4.32614 14.0392C4.53562 14.2588 4.63402 14.5617 4.59364 14.8625L4.21884 17.6542L6.9898 18.1605C7.28835 18.215 7.54598 18.4022 7.69011 18.6693L9.02786 21.1482L11.5672 19.929ZM10.2071 15.208C9.81658 15.5985 9.18342 15.5985 8.79289 15.208C8.40237 14.8175 8.40237 14.1843 8.79289 13.7938L13.7929 8.79376C14.1834 8.40324 14.8166 8.40324 15.2071 8.79376C15.5976 9.18429 15.5976 9.81745 15.2071 10.208L10.2071 15.208ZM9.5 11.0009C8.67157 11.0009 8 10.3293 8 9.50087C8 8.67244 8.67157 8.00087 9.5 8.00087C10.3284 8.00087 11 8.67244 11 9.50087C11 10.3293 10.3284 11.0009 9.5 11.0009ZM14.5 16.0009C13.6716 16.0009 13 15.3293 13 14.5009C13 13.6725 13.6716 13.0009 14.5 13.0009C15.3284 13.0009 16 13.6725 16 14.5009C16 15.3293 15.3284 16.0009 14.5 16.0009Z" fill="#33C24D"/>
</g>
<defs>
<clipPath id="clip0_2932_11046">
<rect width="24" height="24" fill="white"/>
</clipPath>
</defs>
</svg>
