<?xml version="1.0" encoding="utf-8"?>
<!-- Generator: Adobe Illustrator 16.0.0, SVG Export Plug-In . SVG Version: 6.00 Build 0)  -->
<!DOCTYPE svg PUBLIC "-//W3C//DTD SVG 1.1//EN" "http://www.w3.org/Graphics/SVG/1.1/DTD/svg11.dtd">
<svg version="1.1" id="Layer_1" xmlns="http://www.w3.org/2000/svg" xmlns:xlink="http://www.w3.org/1999/xlink" x="0px" y="0px"
	 width="24px" height="24px" viewBox="0 0 500 500" enable-background="new 0 0 500 500" xml:space="preserve">
<g fill="#ffffff">
	<g>
		<g>
			<path d="M209.632,394.648c-24.233,0-43.961,19.753-43.961,43.975c0,24.245,19.728,43.948,43.961,43.948
				c24.252,0,43.986-19.703,43.986-43.948C253.606,414.401,233.884,394.648,209.632,394.648z M209.632,458.012
				c-10.705,0-19.414-8.672-19.414-19.389c0-10.719,8.709-19.428,19.414-19.428c10.718,0,19.433,8.709,19.433,19.428
				C229.065,449.34,220.35,458.012,209.632,458.012z"/>
		</g>
	</g>
	<g>
		<g>
			<path d="M363.867,394.648c-24.233,0-43.949,19.753-43.949,43.975c0,24.245,19.716,43.948,43.949,43.948
				c24.271,0,43.986-19.703,43.986-43.948C407.854,414.401,388.138,394.648,363.867,394.648z M363.867,458.012
				c-10.68,0-19.427-8.672-19.427-19.389c0-10.719,8.747-19.428,19.427-19.428c10.718,0,19.427,8.709,19.427,19.428
				C383.294,449.34,374.585,458.012,363.867,458.012z"/>
		</g>
	</g>
	<g>
		<g>
			<path d="M494.446,108.441c-4.656-5.748-11.621-9.037-19.025-9.037H93.026l-7.711-37.485
				c-1.613-7.831-6.958-14.394-14.275-17.563L17.164,20.963c-6.231-2.698-13.46,0.144-16.158,6.363
				c-2.698,6.225,0.163,13.453,6.375,16.151l53.875,23.38l59.41,288.348c2.334,11.332,12.449,19.59,24.039,19.59h294.12
				c6.777,0,12.249-5.497,12.249-12.273c0-6.777-5.472-12.286-12.249-12.286h-294.12l-7.21-35.077h303.589
				c11.596,0,21.686-8.257,24.07-19.59l34.336-166.672C500.972,121.637,499.115,114.182,494.446,108.441z M441.085,290.6H132.433
				L98.097,123.952h377.324L441.085,290.6z"/>
		</g>
	</g>
</g>
</svg>
