<svg width="24" height="24" viewBox="0 0 24 24" fill="none" xmlns="http://www.w3.org/2000/svg">
<g clip-path="url(#clip0_1744_6936)">
<path fill-rule="evenodd" clip-rule="evenodd" d="M7.56176 19C7.96337 19 8.34853 19.158 8.6325 19.4393C8.91648 19.7206 9.07602 20.1022 9.07602 20.5C9.07602 20.8978 8.91648 21.2794 8.6325 21.5607C8.34853 21.842 7.96337 22 7.56176 22C7.16016 22 6.775 21.842 6.49102 21.5607C6.20704 21.2794 6.04751 20.8978 6.04751 20.5C6.04751 20.1022 6.20704 19.7206 6.49102 19.4393C6.775 19.158 7.16016 19 7.56176 19ZM17.6568 19C18.0584 19 18.4436 19.158 18.7275 19.4393C19.0115 19.7206 19.1711 20.1022 19.1711 20.5C19.1711 20.8978 19.0115 21.2794 18.7275 21.5607C18.4436 21.842 18.0584 22 17.6568 22C17.2552 22 16.87 21.842 16.5861 21.5607C16.3021 21.2794 16.1426 20.8978 16.1426 20.5C16.1426 20.1022 16.3021 19.7206 16.5861 19.4393C16.87 19.158 17.2552 19 17.6568 19ZM2.14882 2C2.91457 2.00009 4.66135 2.28755 5.22177 2.80447C5.78218 3.32139 6.12412 4.02942 6.17874 4.78602L6.19388 5.00002H19.9807C20.2765 4.99998 20.5686 5.06431 20.8365 5.18846C21.1044 5.31262 21.3415 5.49356 21.5311 5.7185C21.7206 5.94344 21.8579 6.20688 21.9333 6.49019C22.0087 6.7735 22.0203 7.06976 21.9674 7.35802L20.3148 16.358C20.2302 16.8188 19.985 17.2356 19.6219 17.5357C19.2588 17.8358 18.801 18.0001 18.3281 18H6.98735C6.47669 18 5.98498 17.8083 5.61128 17.4636C5.23758 17.1188 5.00965 16.6466 4.97339 16.142L4.16579 4.92902C4.14764 4.67647 4.03346 4.44015 3.84629 4.26773C3.65912 4.09531 2.4034 3.99961 2.14781 4H2.0095C1.74177 4 1.485 3.89464 1.29568 3.7071C1.10636 3.51957 1 3.26521 1 3C1 2.73478 1.10636 2.48043 1.29568 2.29289C1.485 2.10536 1.74177 2 2.0095 2H2.14882ZM19.9807 7.00002H6.33824L6.98735 16H18.3281L19.9807 7.00002Z" fill="#333333"/>
</g>
<defs>
<clipPath id="clip0_1744_6936">
<rect width="24" height="24" fill="white"/>
</clipPath>
</defs>
</svg>
