<svg width="46" height="46" viewBox="0 0 46 46" fill="none" xmlns="http://www.w3.org/2000/svg">
<path d="M45 22.9978C45 23.9377 43.4442 24.7579 43.328 25.6731C43.2118 26.5884 44.4966 27.7852 44.2608 28.6899C44.025 29.5946 42.3002 29.9959 41.9482 30.8373C41.5962 31.6786 42.5184 33.1958 42.0608 34.0054C41.6032 34.8151 39.8326 34.7447 39.273 35.4839C38.7133 36.2232 39.2202 37.9058 38.569 38.5641C37.9178 39.2224 36.2246 38.7049 35.4854 39.2682C34.7462 39.8314 34.8166 41.5915 34.007 42.0562C33.1974 42.5208 31.712 41.5915 30.839 41.9435C29.9661 42.2955 29.5894 44.0099 28.6918 44.2598C27.7942 44.5097 26.608 43.2037 25.6717 43.3269C24.7354 43.4502 23.9398 44.9955 23 44.9955C22.0602 44.9955 21.24 43.4396 20.3213 43.3269C19.4026 43.2143 18.1917 44.4957 17.3046 44.2598C16.4176 44.0239 16.0022 42.2955 15.1574 41.9435C14.3126 41.5915 12.799 42.5173 11.9894 42.0562C11.1798 41.595 11.2502 39.8314 10.511 39.2682C9.77184 38.7049 8.0928 39.2153 7.43456 38.5641C6.77632 37.9129 7.29376 36.2232 6.73056 35.4839C6.16736 34.7447 4.40736 34.8151 3.9392 34.0054C3.47104 33.1958 4.40736 31.7067 4.05536 30.8373C3.70336 29.9678 1.9856 29.5876 1.7392 28.6899C1.4928 27.7923 2.7952 26.606 2.672 25.6731C2.5488 24.7403 1 23.9377 1 22.9978C1 22.0579 2.55584 21.2377 2.672 20.3224C2.78816 19.4072 1.50336 18.2103 1.7392 17.3056C1.97504 16.4009 3.70336 15.9996 4.05536 15.1583C4.40736 14.3169 3.4816 12.7997 3.9392 11.9901C4.3968 11.1804 6.16384 11.2508 6.73056 10.5116C7.29728 9.77235 6.78336 8.08969 7.43456 7.43142C8.08576 6.77314 9.77536 7.29061 10.511 6.72738C11.2467 6.16414 11.1798 4.40404 11.9894 3.93937C12.799 3.47471 14.288 4.40404 15.1574 4.05202C16.0269 3.7 16.407 1.98566 17.3046 1.73573C18.2022 1.48579 19.392 2.79179 20.3213 2.66858C21.2506 2.54537 22.0566 1 23 1C23.9434 1 24.76 2.55593 25.6717 2.66858C26.5834 2.78123 27.8048 1.49987 28.6918 1.73573C29.5789 1.97158 29.9942 3.7 30.839 4.05202C31.6838 4.40404 33.1974 3.47823 34.007 3.93937C34.8166 4.40052 34.7462 6.16414 35.4854 6.72738C36.2246 7.29061 37.9072 6.78018 38.569 7.43142C39.2307 8.08265 38.7062 9.77235 39.273 10.5116C39.8397 11.2508 41.5962 11.1804 42.0608 11.9901C42.5254 12.7997 41.5962 14.2853 41.9482 15.1583C42.3002 16.0313 44.0144 16.4079 44.2608 17.3056C44.5072 18.2032 43.2048 19.3896 43.328 20.3224C43.4512 21.2553 45 22.0579 45 22.9978Z" fill="#FECE00"/>
<path d="M28.041 15.4902V14.9639C28.041 14.5857 28.123 14.2416 28.2871 13.9317C28.4512 13.6218 28.6973 13.3734 29.0254 13.1866C29.3535 12.9997 29.7614 12.9062 30.249 12.9062C30.7503 12.9062 31.165 12.9997 31.4932 13.1866C31.8213 13.3734 32.0651 13.6218 32.2246 13.9317C32.3887 14.2416 32.4707 14.5857 32.4707 14.9639V15.4902C32.4707 15.8593 32.3887 16.1989 32.2246 16.5088C32.0651 16.8187 31.8213 17.067 31.4932 17.2539C31.1696 17.4407 30.7617 17.5342 30.2695 17.5342C29.7728 17.5342 29.3604 17.4407 29.0322 17.2539C28.7041 17.067 28.4557 16.8187 28.2871 16.5088C28.123 16.1989 28.041 15.8593 28.041 15.4902ZM29.5176 14.9639V15.4902C29.5176 15.6269 29.5449 15.7568 29.5996 15.8799C29.6543 16.0029 29.7363 16.1032 29.8457 16.1806C29.9596 16.2536 30.0986 16.29 30.2627 16.29C30.4313 16.29 30.568 16.2536 30.6729 16.1806C30.7777 16.1032 30.8551 16.0029 30.9053 15.8799C30.96 15.7568 30.9873 15.6269 30.9873 15.4902V14.9639C30.9873 14.8181 30.96 14.6836 30.9053 14.5605C30.8551 14.4375 30.7754 14.3395 30.666 14.2666C30.5566 14.1891 30.4176 14.1504 30.249 14.1504C30.0895 14.1504 29.9551 14.1891 29.8457 14.2666C29.7363 14.3395 29.6543 14.4375 29.5996 14.5605C29.5449 14.6836 29.5176 14.8181 29.5176 14.9639ZM32.7646 21.0888V20.5626C32.7646 20.1889 32.8467 19.8471 33.0107 19.5372C33.1794 19.2273 33.4277 18.9789 33.7559 18.7921C34.0885 18.6052 34.4987 18.5118 34.9863 18.5118C35.4876 18.5118 35.9001 18.6052 36.2236 18.7921C36.5518 18.9789 36.7956 19.2273 36.9551 19.5372C37.1191 19.8471 37.2012 20.1889 37.2012 20.5626V21.0888C37.2012 21.4625 37.1191 21.8043 36.9551 22.1142C36.7956 22.4241 36.554 22.6725 36.2305 22.8593C35.9069 23.0462 35.499 23.1396 35.0068 23.1396C34.5101 23.1396 34.0954 23.0462 33.7627 22.8593C33.43 22.6725 33.1794 22.4241 33.0107 22.1142C32.8467 21.8043 32.7646 21.4625 32.7646 21.0888ZM34.248 20.5626V21.0888C34.248 21.2301 34.2822 21.3624 34.3506 21.4854C34.4189 21.6085 34.5101 21.7086 34.624 21.7861C34.738 21.859 34.8633 21.8955 35 21.8955C35.2096 21.8955 35.3646 21.859 35.4648 21.7861C35.5697 21.7086 35.638 21.6085 35.6699 21.4854C35.7064 21.3624 35.7246 21.2301 35.7246 21.0888V20.5626C35.7246 20.4213 35.6973 20.289 35.6426 20.166C35.5879 20.0429 35.5059 19.9451 35.3965 19.8721C35.2871 19.7947 35.1504 19.7558 34.9863 19.7558C34.8223 19.7558 34.6855 19.7947 34.5762 19.8721C34.4668 19.9451 34.3848 20.0429 34.3301 20.166C34.2754 20.289 34.248 20.4213 34.248 20.5626ZM35.5605 14.4785L30.7002 22.2578L29.627 21.7177L34.4873 13.9384L35.5605 14.4785Z" fill="#333333"/>
<path d="M19.6641 30.5645V30.9102C19.6641 31.5625 19.5723 32.1484 19.3887 32.668C19.209 33.1836 18.9531 33.625 18.6211 33.9922C18.2891 34.3555 17.8965 34.6348 17.4434 34.8301C16.9902 35.0215 16.4902 35.1172 15.9434 35.1172C15.3926 35.1172 14.8887 35.0215 14.4316 34.8301C13.9785 34.6348 13.584 34.3555 13.248 33.9922C12.916 33.625 12.6582 33.1836 12.4746 32.668C12.2949 32.1484 12.2051 31.5625 12.2051 30.9102V30.5645C12.2051 29.9121 12.2949 29.3262 12.4746 28.8066C12.6582 28.2871 12.9141 27.8457 13.2422 27.4824C13.5742 27.1152 13.9668 26.8359 14.4199 26.6445C14.877 26.4492 15.3809 26.3516 15.9316 26.3516C16.4785 26.3516 16.9785 26.4492 17.4316 26.6445C17.8887 26.8359 18.2832 27.1152 18.6152 27.4824C18.9473 27.8457 19.2051 28.2871 19.3887 28.8066C19.5723 29.3262 19.6641 29.9121 19.6641 30.5645ZM17.5781 30.9102V30.5527C17.5781 30.1309 17.541 29.7598 17.4668 29.4395C17.3965 29.1152 17.291 28.8438 17.1504 28.625C17.0098 28.4062 16.8359 28.2422 16.6289 28.1328C16.4258 28.0195 16.1934 27.9629 15.9316 27.9629C15.6582 27.9629 15.4199 28.0195 15.2168 28.1328C15.0137 28.2422 14.8438 28.4062 14.707 28.625C14.5703 28.8438 14.4668 29.1152 14.3965 29.4395C14.3301 29.7598 14.2969 30.1309 14.2969 30.5527V30.9102C14.2969 31.3281 14.3301 31.6992 14.3965 32.0234C14.4668 32.3438 14.5703 32.6152 14.707 32.8379C14.8477 33.0605 15.0195 33.2285 15.2227 33.3418C15.4297 33.4551 15.6699 33.5117 15.9434 33.5117C16.2051 33.5117 16.4375 33.4551 16.6406 33.3418C16.8438 33.2285 17.0137 33.0605 17.1504 32.8379C17.291 32.6152 17.3965 32.3438 17.4668 32.0234C17.541 31.6992 17.5781 31.3281 17.5781 30.9102Z" fill="#333333"/>
<path d="M22.7871 26.4688V35H20.7305V26.4688H22.7871ZM26.1035 30.0195V31.6016H22.2012V30.0195H26.1035ZM26.4375 26.4688V28.0566H22.2012V26.4688H26.4375Z" fill="#333333"/>
<path d="M29.3496 26.4688V35H27.293V26.4688H29.3496ZM32.666 30.0195V31.6016H28.7637V30.0195H32.666ZM33 26.4688V28.0566H28.7637V26.4688H33Z" fill="#333333"/>
</svg>
