<svg width="16" height="16" viewBox="0 0 16 16" fill="none" xmlns="http://www.w3.org/2000/svg">
<path d="M15.917 10.5517C15.913 10.4477 15.837 10.3197 15.741 10.2637C15.641 10.2076 15.5289 10.2036 15.4369 10.2556C15.3329 10.3157 15.2689 10.4357 15.2649 10.5757C15.2609 10.8957 15.2569 11.2757 15.2649 11.6597C15.2689 11.7517 15.2449 11.7877 15.1609 11.8357C14.3329 12.2958 13.5088 12.7638 12.6808 13.2278L11.7167 13.7679C10.9367 14.2079 10.1566 14.6439 9.37657 15.0799C9.36057 15.0879 9.34457 15.0959 9.33657 15.0999C9.33657 15.0879 9.33257 15.0719 9.33257 15.0519V14.9679V13.2518C9.33257 10.7037 9.33257 8.15552 9.32857 5.60737C9.32857 5.46336 9.36457 5.40335 9.48858 5.33535C10.5046 4.77132 11.5207 4.19928 12.5328 3.62725L13.8328 2.8952C14.2969 2.63519 14.7609 2.37117 15.2249 2.11115C15.2369 2.10315 15.2449 2.09915 15.2569 2.09515C15.2569 2.10315 15.2569 2.11515 15.2609 2.13115C15.2609 2.16316 15.2609 2.19116 15.2609 2.22316V2.26716V8.88757V8.93157C15.2609 8.97557 15.2609 9.02357 15.2649 9.06758C15.2809 9.26359 15.4129 9.3956 15.5929 9.3956H15.5969C15.777 9.3916 15.905 9.25559 15.921 9.05958C15.925 9.02757 15.925 8.99157 15.921 8.95957V2.18316C15.921 2.12315 15.921 2.06315 15.913 2.00315C15.893 1.79113 15.773 1.60712 15.589 1.50712C15.4049 1.40311 15.1889 1.39511 14.9929 1.48712C14.9569 1.50312 14.9209 1.52312 14.8889 1.53912C14.8369 1.49112 14.7889 1.44311 14.7369 1.39511C14.5769 1.2431 14.4289 1.10309 14.2889 0.947082C14.1209 0.763071 13.9448 0.719069 13.7208 0.795073C13.4688 0.883079 13.2128 0.959083 12.9488 1.03909L12.7488 1.09909V0.963084V0.431051C12.7488 0.239039 12.6968 0.107031 12.5928 0.0430269C12.4928 -0.020977 12.3608 -0.012976 12.2007 0.0630286L12.0007 0.155034C11.6367 0.323044 11.2607 0.495054 10.9087 0.707067C9.52058 1.53912 8.52852 2.66719 7.95648 4.05927C7.90448 3.95927 7.85648 3.85926 7.80848 3.75525C7.68047 3.49124 7.54846 3.21922 7.38845 2.9672C6.5524 1.67113 5.35233 0.719068 3.72823 0.0590283C3.54822 -0.0129761 3.41621 -0.0169766 3.3162 0.0470273C3.2202 0.111031 3.17219 0.239039 3.17219 0.431051V1.09909L2.97218 1.03509C2.70016 0.951082 2.43215 0.867077 2.16813 0.783072C1.97212 0.719068 1.81211 0.759071 1.6641 0.91508C1.50809 1.07909 1.34808 1.2311 1.18407 1.39111L1.03206 1.53912C0.828051 1.39911 0.580035 1.37911 0.372023 1.49112C0.144009 1.61112 0 1.85914 0 2.13915C0.016001 4.91532 0.0120008 7.7395 0.0120008 10.4717V11.7077C0.0120008 12.0118 0.140009 12.2358 0.404025 12.3838C1.18807 12.8238 1.96812 13.2638 2.75217 13.6999C3.90824 14.3519 5.06831 14.9999 6.22838 15.648C6.33239 15.704 6.44839 15.724 6.5644 15.744C6.6124 15.752 6.66041 15.76 6.72041 15.772C6.73641 15.776 6.76041 15.78 6.76841 15.784C6.84042 15.832 6.90842 15.88 6.97642 15.928L7.07643 16H8.86854L8.97655 15.92C9.04455 15.868 9.11656 15.82 9.17256 15.764C9.40857 15.824 9.59659 15.72 9.7686 15.624L13.3608 13.6039C14.0849 13.1958 14.8089 12.7878 15.5329 12.3838C15.789 12.2398 15.917 12.0558 15.921 11.8197C15.925 11.3357 15.925 10.9317 15.917 10.5517ZM12.0887 1.34311C12.0807 1.35911 12.0447 1.39111 12.0127 1.40311C11.0007 1.85114 10.1446 2.37117 9.40457 2.98721C9.34457 3.03521 9.28857 3.08321 9.23256 3.13522C9.9086 2.15916 10.8487 1.39511 12.0927 0.823075V0.867077C12.0967 1.03909 12.0967 1.1991 12.0887 1.34311ZM14.3049 1.87514L12.1807 3.06721C11.2407 3.59524 10.2646 4.13928 9.31657 4.68731C9.01655 4.85932 8.76853 4.92732 8.51652 4.90732C9.10055 4.07127 9.8886 3.35523 10.9247 2.71919C11.7807 2.19516 12.7448 1.77113 13.7848 1.46711C13.8408 1.45111 13.8608 1.45511 13.9008 1.49512C14.0049 1.60312 14.1169 1.70313 14.2369 1.81514L14.3049 1.87514ZM7.26044 14.9719V14.9319H8.67253V14.9719C8.67253 15.0959 8.67653 15.216 8.67253 15.316C8.66853 15.324 8.65253 15.336 8.66053 15.336C8.2045 15.344 7.74047 15.344 7.28844 15.336C7.28444 15.336 7.27644 15.328 7.26844 15.328C7.26444 15.328 7.26444 15.328 7.26444 15.336C7.25644 15.22 7.26044 15.0959 7.26044 14.9719ZM8.66053 13.9119V14.2559H7.27244V13.9119H8.66053ZM8.66453 7.67549V13.2278H7.26844V7.67549H8.66453ZM8.66453 6.65543V6.99545H7.26844V6.65543H8.66453ZM7.27644 5.57136C7.73647 5.56336 8.2005 5.56336 8.64453 5.57136C8.65253 5.57536 8.66853 5.58736 8.66853 5.57136C8.67653 5.69137 8.67653 5.81138 8.67253 5.93539V5.97539H7.26044V5.93539C7.26044 5.81538 7.25644 5.70337 7.26444 5.58737C7.27244 5.57936 7.28044 5.57136 7.27644 5.57136ZM4.8643 2.22716C4.9443 2.05915 4.8843 1.88314 4.71629 1.79513C4.43227 1.65113 4.15625 1.51912 3.89224 1.39911C3.84023 1.37511 3.83623 1.36711 3.84023 1.31911C3.84423 1.1751 3.84423 1.02709 3.84423 0.875078V0.827075C5.10031 1.40711 6.05637 2.18716 6.75641 3.19522C6.5924 3.05521 6.42839 2.9152 6.26438 2.77519C6.21638 2.73519 6.16438 2.69519 6.11237 2.65919L6.08437 2.63918C5.96836 2.55918 5.86836 2.52318 5.77635 2.53918C5.69635 2.55118 5.62834 2.59918 5.57234 2.67919C5.45633 2.8392 5.49633 3.00321 5.68035 3.16722L5.92436 3.37923C6.24438 3.65525 6.5764 3.94326 6.88042 4.23928C7.04043 4.39929 7.18044 4.5793 7.32845 4.77132C7.36045 4.81532 7.39245 4.85532 7.42845 4.89932C7.18044 4.91132 6.96042 4.87932 6.74041 4.75131C5.50834 4.04727 4.24826 3.33923 3.02818 2.65519L1.7041 1.91114C1.6841 1.89914 1.6601 1.88714 1.6401 1.87114L1.6961 1.81914C1.82811 1.69113 1.95212 1.57112 2.07613 1.46311C2.08813 1.45911 2.12413 1.45911 2.15613 1.46711C2.88418 1.67913 3.60022 1.95914 4.28426 2.31117L4.31226 2.32317C4.35226 2.34317 4.38827 2.36317 4.42827 2.37917C4.60428 2.45917 4.78429 2.39517 4.8643 2.22716ZM6.6004 10.2877V15.0079C6.6004 15.0519 6.6004 15.0839 6.5964 15.1039C6.5764 15.0959 6.5524 15.0839 6.5124 15.0599L5.24432 14.3479C3.76823 13.5158 2.29214 12.6878 0.81605 11.8597C0.704043 11.7957 0.668041 11.7397 0.668041 11.6117C0.672041 9.03958 0.672041 6.46742 0.672041 3.89926V2.14315C0.672041 2.12715 0.672041 2.11115 0.676041 2.10315C0.684042 2.10715 0.696042 2.11515 0.708043 2.11915C0.912056 2.23516 1.12007 2.34717 1.32408 2.46317L2.49615 3.12321C3.82423 3.87126 5.15631 4.61931 6.4884 5.36335C6.5804 5.41536 6.6044 5.45936 6.6044 5.56736C6.6004 6.79944 6.6004 8.03151 6.6004 9.26359V10.2877Z" fill="black"/>
<path d="M9.81259 8.24748C9.81259 8.40749 9.8726 8.52749 9.9766 8.5875C10.0206 8.6155 10.0726 8.6275 10.1286 8.6275C10.1966 8.6275 10.2726 8.6075 10.3526 8.5635C10.5046 8.47949 10.6566 8.39149 10.8087 8.30348L11.7327 7.77545C12.6728 7.23942 13.6128 6.69938 14.5529 6.16735C14.6609 6.10735 14.8009 5.99934 14.7969 5.77933C14.7929 5.53931 14.7969 5.3033 14.7969 5.06328C14.7969 4.83927 14.7969 4.61526 14.7969 4.39124C14.7969 4.23923 14.7369 4.11923 14.6329 4.05922C14.5289 3.99922 14.3969 4.00722 14.2649 4.07922C14.0489 4.19923 13.8368 4.31924 13.6248 4.44325L12.6088 5.02328C11.7567 5.51131 10.9007 5.99934 10.0486 6.48337C9.8806 6.57938 9.80459 6.71138 9.81259 6.8954C9.8206 7.04741 9.81659 7.20342 9.81659 7.35542V7.76745C9.80859 7.92746 9.80859 8.08747 9.81259 8.24748ZM10.4726 7.67144C10.4726 7.44743 10.4726 7.23542 10.4766 7.0274C10.4766 7.0154 10.4886 6.9954 10.4966 6.9914C11.7127 6.29136 12.9328 5.59532 14.1329 4.91128V4.97928C14.1329 5.19929 14.1329 5.42331 14.1289 5.64332C14.1169 5.65132 14.1009 5.66732 14.0609 5.68732C13.2048 6.17935 12.3487 6.66738 11.4927 7.15541L10.4766 7.73545L10.4726 7.67144Z" fill="black"/>
<path d="M7.96049 12.1718C7.96449 12.1718 7.96449 12.1718 7.96849 12.1718C8.0525 12.1718 8.1285 12.1438 8.18451 12.0878C8.26051 12.0158 8.29651 11.9038 8.30051 11.7598H8.20051L8.30051 11.7278V9.16762C8.30051 9.11562 8.30051 9.05561 8.28851 8.99561C8.25651 8.8356 8.1405 8.7396 7.97649 8.7356C7.97249 8.7356 7.9725 8.7356 7.96849 8.7356C7.80048 8.7356 7.68048 8.8356 7.64847 9.00361C7.63647 9.05561 7.63647 9.11162 7.63647 9.17562V11.0597C7.63647 11.2958 7.63647 11.5318 7.63647 11.7638C7.64047 12.0158 7.76048 12.1678 7.96049 12.1718Z" fill="black"/>
</svg>
