<svg width="24" height="22" viewBox="0 0 24 22" fill="none" xmlns="http://www.w3.org/2000/svg">
<path d="M23.4986 7.91632L21.8357 6.25342C22.1519 5.63862 22.0524 4.85987 21.5371 4.34461L19.9328 2.73441C19.6225 2.42408 19.2126 2.25428 18.7734 2.25428C18.51 2.25428 18.2523 2.31868 18.024 2.43579L16.3611 0.772895C16.039 0.450855 15.6116 0.275197 15.1549 0.275197C14.6982 0.275197 14.2707 0.450855 13.9487 0.772895L12.2097 2.51191L10.2013 0.503553C9.88515 0.175658 9.45772 0 9.00101 0C8.5443 0 8.11686 0.175658 7.79482 0.497697L1.14324 7.16099C-0.379124 8.68336 -0.379124 11.1601 1.13153 12.6884C1.13739 12.6942 1.13739 12.6942 1.14324 12.7001L8.37449 19.9372C8.39792 19.9606 8.42134 19.984 8.45061 20.0016C9.18252 20.6984 10.1369 21.0789 11.1499 21.0789C12.198 21.0789 13.1758 20.6691 13.9194 19.9313L23.5045 10.3287C24.1661 9.66704 24.1661 8.57796 23.4986 7.91632ZM18.3284 3.44289C18.4514 3.31993 18.6095 3.25553 18.7793 3.25553C18.9491 3.25553 19.1072 3.31993 19.2302 3.44289L20.8404 5.05309C21.0863 5.30487 21.0863 5.70888 20.8404 5.9548L19.4351 7.36007L17.6258 9.16934C17.5087 9.28645 17.3448 9.35671 17.175 9.35671C17.0052 9.35671 16.8471 9.2923 16.7241 9.16934L16.0098 8.455L15.1139 7.55914C14.868 7.31322 14.868 6.90336 15.1139 6.65743L18.3284 3.44289ZM22.796 9.62605L13.2109 19.2287C12.6605 19.7791 11.9286 20.0836 11.1499 20.0836C10.3711 20.0836 9.63923 19.7791 9.08884 19.2287C9.06542 19.2053 9.042 19.1877 9.01857 19.1701L1.86344 11.9974C1.86344 11.9916 1.85759 11.9916 1.85759 11.9857C0.721665 10.8498 0.721665 8.99954 1.85759 7.86362L8.50331 1.20618C8.63798 1.07151 8.81364 1.00125 9.00101 1.00125C9.18838 1.00125 9.36989 1.07151 9.4987 1.20618L11.5071 3.22039L4.35778 10.3814C4.23482 10.5043 4.07673 10.5688 3.90693 10.5688C3.73713 10.5688 3.57903 10.5043 3.45607 10.3814C3.21015 10.1296 3.21015 9.72559 3.45607 9.47967C3.47364 9.46211 3.4912 9.43868 3.50877 9.42112L7.94121 4.99454C8.13443 4.80132 8.13443 4.48513 7.94121 4.28605C7.74798 4.09283 7.4318 4.09283 7.23272 4.28605L2.75344 8.75947C2.73002 8.7829 2.71246 8.80632 2.69489 8.83559C2.12107 9.47967 2.13864 10.4692 2.75344 11.0899C3.06377 11.4002 3.47364 11.57 3.91278 11.57C4.35193 11.57 4.7618 11.4002 5.06627 11.0899L12.5669 3.57171L14.6572 1.47553C14.7919 1.34086 14.9675 1.27059 15.1549 1.27059C15.3423 1.27059 15.5238 1.34086 15.6526 1.47553L17.2569 3.08572L16.5543 3.78836L15.5003 2.73441C15.4067 2.64072 15.2779 2.58803 15.149 2.58803C15.0144 2.58803 14.8914 2.64072 14.7977 2.73441L13.2695 4.27434C13.0763 4.46757 13.0763 4.78375 13.2695 4.98283C13.369 5.08237 13.492 5.12921 13.6208 5.12921C13.7496 5.12921 13.8784 5.08237 13.9721 4.98283L15.1549 3.79421L15.8575 4.49684L14.3996 5.9548C13.7613 6.59303 13.7613 7.63526 14.3996 8.27349L15.3188 9.19276L16.0098 9.88368C16.3201 10.194 16.73 10.3638 17.1691 10.3638C17.6082 10.3638 18.0181 10.194 18.3284 9.88368L19.7805 8.42572L20.4773 9.12836L19.2887 10.317C19.0955 10.5102 19.0955 10.8264 19.2887 11.0255C19.3882 11.125 19.5171 11.1718 19.64 11.1718C19.7688 11.1718 19.8977 11.125 19.9913 11.0255L21.5313 9.48553C21.7245 9.2923 21.7245 8.97612 21.5313 8.77704L20.4773 7.72309L21.18 7.02046L22.7843 8.63066C23.0712 8.9 23.0712 9.35086 22.796 9.62605Z" fill="#010101"/>
<path d="M17.9713 7.91563C18.4163 7.47063 18.4163 6.75043 17.9713 6.30543C17.5263 5.86043 16.8061 5.86043 16.367 6.30543C15.922 6.75043 15.922 7.47063 16.367 7.91563C16.812 8.36063 17.5322 8.36063 17.9713 7.91563Z" fill="#010101"/>
<path d="M11.7278 5.81484L10.1879 7.35477C9.99466 7.548 9.99466 7.86418 10.1879 8.06326C10.2874 8.1628 10.4104 8.20964 10.5392 8.20964C10.668 8.20964 10.7968 8.1628 10.8905 8.06326L12.4305 6.52333C12.6237 6.3301 12.6237 6.01392 12.4305 5.81484C12.2372 5.62162 11.921 5.62162 11.7278 5.81484Z" fill="#010101"/>
<path d="M8.6497 8.89394L7.10976 10.4339C6.91654 10.6271 6.91654 10.9433 7.10976 11.1424C7.2093 11.2419 7.33226 11.2887 7.46108 11.2887C7.58989 11.2887 7.71871 11.2419 7.81239 11.1424L9.35233 9.60243C9.54555 9.4092 9.54555 9.09302 9.35233 8.89394C9.16496 8.70072 8.84878 8.70072 8.6497 8.89394Z" fill="#010101"/>
<path d="M17.7532 11.851L16.2133 13.3909C16.0201 13.5841 16.0201 13.9003 16.2133 14.0994C16.3128 14.1989 16.4416 14.2458 16.5646 14.2458C16.6934 14.2458 16.8222 14.1989 16.9159 14.0994L18.4558 12.5595C18.6491 12.3662 18.6491 12.0501 18.4558 11.851C18.2685 11.6577 17.9523 11.6577 17.7532 11.851Z" fill="#010101"/>
<path d="M14.6809 14.9364L13.141 16.4764C12.9478 16.6696 12.9478 16.9858 13.141 17.1848C13.2406 17.2844 13.3694 17.3312 13.4923 17.3312C13.6211 17.3312 13.75 17.2844 13.8436 17.1848L15.3836 15.6449C15.5768 15.4517 15.5768 15.1355 15.3836 14.9364C15.1904 14.7373 14.8742 14.7373 14.6809 14.9364Z" fill="#010101"/>
<path d="M8.77162 3.94591C8.90044 3.94591 9.02925 3.89907 9.12294 3.79953L9.35129 3.57118C9.54452 3.37795 9.54452 3.06177 9.35129 2.86269C9.15807 2.66947 8.84188 2.66947 8.6428 2.86269L8.41445 3.09105C8.22123 3.28427 8.22123 3.60045 8.41445 3.79953C8.51399 3.89907 8.6428 3.94591 8.77162 3.94591Z" fill="#010101"/>
</svg>
