<?xml version="1.0" encoding="utf-8"?>
<!-- Generator: Adobe Illustrator 16.0.0, SVG Export Plug-In . SVG Version: 6.00 Build 0)  -->
<!DOCTYPE svg PUBLIC "-//W3C//DTD SVG 1.1//EN" "http://www.w3.org/Graphics/SVG/1.1/DTD/svg11.dtd">
<svg version="1.1" id="Layer_1" xmlns="http://www.w3.org/2000/svg" xmlns:xlink="http://www.w3.org/1999/xlink" x="0px" y="0px"
	 width="22px" height="22px" viewBox="0 0 100 100" enable-background="new 0 0 100 100" xml:space="preserve">
<path fill="#33c24d" d="M85.354,14.645C75.911,5.202,63.356,0,50,0C36.644,0,24.088,5.202,14.645,14.645S0,36.644,0,50
	c0,13.356,5.202,25.911,14.645,35.354S36.644,100,50,100c13.356,0,25.911-5.202,35.354-14.646S100,63.356,100,50
	C100,36.644,94.798,24.088,85.354,14.645z M78.435,38.395L44.173,72.659c-1.318,1.315-3.07,2.041-4.932,2.041
	c-1.862,0-3.61-0.726-4.929-2.041L19.772,58.118c-2.718-2.718-2.718-7.142,0-9.86c2.718-2.718,7.142-2.718,9.86,0l9.609,9.61
	l29.335-29.333c2.719-2.718,7.143-2.718,9.857,0C81.155,31.253,81.155,35.677,78.435,38.395z"/>
</svg>
